<?xml version="1.0" standalone="no"?>
<!DOCTYPE svg PUBLIC "-//W3C//DTD SVG 20010904//EN"
 "http://www.w3.org/TR/2001/REC-SVG-20010904/DTD/svg10.dtd">
<svg version="1.0" xmlns="http://www.w3.org/2000/svg"
 width="25pt" height="25pt" viewBox="0 0 115.000000 166.000000"
 preserveAspectRatio="xMidYMid meet">

<g transform="translate(0.000000,166.000000) scale(0.100000,-0.100000)"
fill="#000000" stroke="none">
<path d="M98 1589 c-15 -8 -18 -24 -18 -82 0 -40 4 -78 9 -86 5 -8 26 -15 48
-16 l38 -1 5 -519 5 -520 70 -3 c57 -2 72 0 82 14 10 14 13 145 13 605 0 521
-2 589 -16 603 -12 13 -38 16 -117 16 -56 0 -110 -5 -119 -11z"/>
<path d="M518 1590 c-15 -9 -18 -25 -18 -83 0 -44 5 -78 12 -85 8 -8 65 -12
190 -12 l179 0 -3 -394 c-3 -383 -4 -395 -24 -423 -12 -15 -32 -30 -45 -32
-33 -4 -39 -17 -39 -87 0 -83 13 -98 79 -92 76 7 130 48 158 119 35 87 43 199
43 572 0 230 3 346 10 342 6 -3 10 1 10 9 0 9 5 16 11 16 8 0 10 20 7 59 -7
98 1 96 -297 99 -166 1 -262 -2 -273 -8z"/>
<path d="M541 1086 c-8 -9 -10 -153 -9 -517 l3 -504 75 0 75 0 3 504 c1 364
-1 508 -9 517 -7 9 -33 14 -69 14 -36 0 -62 -5 -69 -14z"/>
<path d="M44 995 c-30 -47 10 -94 64 -74 30 11 39 54 17 79 -25 28 -61 25 -81
-5z"/>
</g>
</svg>
