<?xml version="1.0" standalone="no"?>
<!DOCTYPE svg PUBLIC "-//W3C//DTD SVG 20010904//EN"
 "http://www.w3.org/TR/2001/REC-SVG-20010904/DTD/svg10.dtd">
<svg version="1.0" xmlns="http://www.w3.org/2000/svg"
 width="60pt" height="60pt" viewBox="0 0 499.000000 499.000000"
 preserveAspectRatio="xMidYMid meet">

<g transform="translate(0.000000,499.000000) scale(0.100000,-0.100000)"
fill="#000000" stroke="none">
<path d="M816 3514 c-11 -11 -16 -34 -16 -75 0 -79 11 -99 55 -99 l35 0 0
-656 c0 -432 4 -662 10 -675 9 -16 22 -19 79 -19 54 0 70 4 75 16 11 29 7
1484 -4 1505 -10 17 -22 19 -115 19 -81 0 -107 -3 -119 -16z"/>
<path d="M1206 3514 c-11 -11 -16 -34 -16 -75 0 -81 11 -99 60 -99 48 0 46 28
20 -285 -11 -132 -27 -325 -35 -430 -8 -104 -18 -218 -21 -252 -6 -71 -2 -76
82 -87 76 -9 80 -2 93 189 6 88 18 237 26 330 37 422 36 466 -7 512 l-21 23
106 0 107 0 0 -430 0 -430 -49 0 c-58 0 -61 -5 -61 -98 0 -93 3 -96 95 -90 81
5 110 19 149 72 20 27 21 41 24 509 2 265 0 501 -3 525 -9 62 -53 108 -116
121 -27 6 -133 11 -234 11 -154 0 -186 -3 -199 -16z"/>
<path d="M1891 3512 c-12 -23 -14 -127 -3 -155 7 -16 24 -18 152 -20 l145 -2
3 -509 c1 -356 6 -513 13 -523 7 -8 34 -13 75 -13 53 0 65 3 74 20 8 15 10
182 8 553 -3 492 -4 535 -22 574 -11 27 -32 51 -55 65 -33 21 -50 23 -208 26
-164 4 -172 3 -182 -16z"/>
<path d="M2528 3520 c-17 -10 -18 -36 -18 -316 0 -332 3 -354 56 -374 31 -12
184 -13 202 -2 17 12 22 148 6 170 -7 9 -26 18 -43 18 -17 1 -38 2 -46 3 -13
1 -15 26 -15 161 l0 161 116 -3 115 -3 -1 -324 c0 -182 -5 -344 -11 -370 -24
-108 -80 -152 -203 -159 -45 -2 -87 -9 -93 -14 -9 -7 -13 -38 -13 -89 0 -76 1
-79 26 -85 44 -11 176 3 234 25 98 37 166 119 204 245 20 67 21 93 21 457 0
432 0 429 -73 480 -34 23 -42 24 -241 27 -133 1 -212 -1 -223 -8z"/>
<path d="M3198 3519 c-15 -8 -18 -24 -18 -82 0 -88 8 -102 57 -102 l38 -1 3
-514 c2 -396 5 -516 15 -522 6 -4 40 -8 74 -8 51 0 64 3 73 19 6 13 10 221 10
605 0 518 -2 586 -16 600 -12 13 -38 16 -117 16 -56 0 -110 -5 -119 -11z"/>
<path d="M3618 3520 c-15 -9 -18 -25 -18 -83 0 -44 5 -78 12 -85 8 -8 65 -12
190 -12 l179 0 -3 -394 c-3 -383 -4 -395 -24 -423 -12 -15 -32 -30 -45 -32
-33 -4 -39 -17 -39 -87 0 -83 13 -98 79 -92 76 7 130 48 158 119 35 87 43 199
43 572 0 230 3 346 10 342 6 -3 10 1 10 9 0 9 5 16 11 16 8 0 10 20 7 59 -7
98 1 96 -297 99 -166 1 -262 -2 -273 -8z"/>
<path d="M2752 3184 c-24 -17 -30 -62 -10 -82 19 -19 66 -15 78 7 15 29 12 49
-10 71 -24 24 -29 24 -58 4z"/>
<path d="M3641 3016 c-8 -9 -10 -153 -9 -517 l3 -504 75 0 75 0 3 504 c1 364
-1 508 -9 517 -7 9 -33 14 -69 14 -36 0 -62 -5 -69 -14z"/>
<path d="M3144 2925 c-30 -45 9 -95 60 -75 34 12 44 54 21 80 -25 27 -61 25
-81 -5z"/>
<path d="M2586 2184 c-32 -31 -10 -94 33 -94 23 0 51 31 51 57 0 23 -29 53
-53 53 -8 0 -23 -7 -31 -16z"/>
<path d="M2868 2189 c-12 -6 -18 -22 -18 -45 0 -28 5 -36 26 -45 56 -21 99 45
56 84 -21 19 -39 21 -64 6z"/>
<path d="M1236 2174 c-10 -27 -7 -89 6 -102 7 -7 40 -12 80 -12 l68 0 0 -30
c0 -36 18 -42 110 -38 64 3 65 4 75 36 9 32 10 32 70 32 81 0 87 6 83 71 l-3
54 -241 3 c-214 2 -242 1 -248 -14z"/>
<path d="M2712 2038 c-7 -7 -12 -24 -12 -38 0 -34 17 -50 52 -50 38 0 57 39
38 75 -15 27 -57 34 -78 13z"/>
<path d="M1620 1810 c0 -29 2 -30 43 -30 l42 0 -4 -130 c-3 -142 2 -180 24
-180 24 0 27 18 26 166 -2 139 -1 144 19 144 16 0 20 6 20 30 l0 30 -85 0 -85
0 0 -30z"/>
<path d="M1837 1833 c-4 -3 -7 -48 -7 -99 0 -100 2 -104 61 -104 26 0 29 4 29
30 0 23 -4 30 -20 30 -17 0 -20 7 -20 45 l0 45 40 0 40 0 0 -99 c0 -114 -16
-147 -73 -153 -32 -3 -49 -30 -30 -48 14 -15 99 10 124 36 22 24 24 35 27 159
4 129 3 133 -19 149 -24 16 -138 23 -152 9z"/>
<path d="M2054 1825 c-13 -34 3 -45 67 -45 l61 0 -4 -116 c-2 -97 -6 -117 -20
-125 -19 -10 -25 -59 -9 -59 5 0 21 4 35 10 36 13 47 67 44 217 l-3 128 -83 3
c-67 2 -83 0 -88 -13z"/>
<path d="M2270 1810 c0 -20 5 -30 15 -30 13 0 15 -23 15 -149 l0 -149 25 -4
25 -5 0 183 0 184 -40 0 c-38 0 -40 -2 -40 -30z"/>
<path d="M2400 1810 c0 -20 5 -30 15 -30 16 0 15 -21 -5 -209 -6 -47 -8 -86
-7 -88 2 -1 14 -4 28 -5 23 -3 24 -1 31 87 5 50 9 118 10 152 3 61 4 63 31 63
l27 0 0 -125 c0 -120 -1 -125 -21 -125 -16 0 -20 -5 -17 -27 3 -25 7 -28 33
-25 50 5 55 22 55 177 0 181 -2 185 -106 185 l-74 0 0 -30z"/>
<path d="M2620 1810 c0 -20 5 -30 15 -30 13 0 15 -23 15 -149 l0 -149 25 -4
c16 -4 25 0 27 10 2 8 2 91 0 183 l-3 169 -39 0 c-38 0 -40 -2 -40 -30z"/>
<path d="M2837 1833 c-14 -14 -6 -45 13 -50 18 -5 20 -14 20 -79 0 -72 1 -74
25 -74 l25 0 0 105 0 105 -38 0 c-21 0 -42 -3 -45 -7z"/>
<path d="M2964 1825 c-12 -31 4 -45 51 -45 l45 0 0 -149 c0 -156 4 -169 43
-149 15 8 17 26 17 154 0 189 -7 204 -98 204 -38 0 -54 -4 -58 -15z"/>
<path d="M3172 1658 l3 -182 49 3 c111 7 126 33 126 225 l0 136 -45 0 c-43 0
-45 -1 -45 -30 0 -23 4 -30 20 -30 19 0 20 -7 20 -90 0 -111 -17 -160 -54
-160 l-26 0 0 155 0 155 -25 0 -25 0 2 -182z"/>
<path d="M824 1695 c-3 -8 -3 -19 1 -25 10 -16 641 -14 647 3 14 36 4 37 -323
37 -270 0 -320 -2 -325 -15z"/>
<path d="M3482 1688 l3 -23 323 -3 322 -2 0 25 0 25 -326 0 -325 0 3 -22z"/>
<path d="M2060 1541 c0 -83 4 -152 9 -155 5 -4 16 -3 25 0 14 5 16 28 16 155
l0 149 -25 0 -25 0 0 -149z"/>
</g>
</svg>
